<svg id="f144aed4-39ce-4054-a922-0c6465d77746" data-name="Слой 1" xmlns="http://www.w3.org/2000/svg"
  xmlns:xlink="http://www.w3.org/1999/xlink" width="351.29703" height="94.36323" viewBox="0 0 351.29703 94.36323">
  <defs>
    <style>
      .fdd18fc0-0c70-4273-8940-f6d2ba92042c {
        fill: #4b5563;
      }

      .ac348c09-0a9f-4c0d-9f21-108a8ba1edd0 {
        fill: url(#ad62f6a1-d3e4-4be3-8408-e3549e1294e6);
      }

      .b081c75e-43f1-41a9-af4e-67b236eb1a75 {
        fill: url(#f37cece9-54f5-4679-9ce1-526ab5f0e088);
      }

      .a2ec8570-6bb6-4b05-8275-2cb4a39f5ac6 {
        fill: url(#a50b8eb8-9fc3-47e5-a19a-d69860eda609);
      }

      .a0006482-945f-474a-b6ef-c3b987396366 {
        fill: url(#bb157d2c-aa27-4615-be78-faa8ee668f13);
      }

      .a6d10479-98c2-41d3-94d7-21435567dabe {
        fill: url(#bd0eeb2e-240b-45d9-99eb-1d840a5ea096);
      }

      .b4f74ce4-d10d-4792-a5c0-73de3ac6a9b8 {
        fill: url(#ecaf45ce-e226-4e03-ad7a-29384b0d8b29);
      }

      .f98fe767-f0e8-4b8b-8b8f-f273351607be {
        fill: url(#a3749a78-d105-4630-a901-aa40b80d2cf8);
      }

      .f57ed8d8-dd1d-49a1-9149-71178fd184d0 {
        fill: url(#b54c103c-76bb-4bf9-be05-b0bfda555ab7);
      }

      .a82d4eee-dc87-4050-bf8f-e8ae07b7a02e {
        fill: url(#b456ea3b-0c77-4d98-9ab0-5470b75b15ae);
      }
    </style>
    <linearGradient id="ad62f6a1-d3e4-4be3-8408-e3549e1294e6" x1="98.48615" y1="75.72993" x2="16.44004" y2="6.89726"
      gradientUnits="userSpaceOnUse">
      <stop offset="0" stop-color="#b46642" />
      <stop offset="0.2973" stop-color="#ef9a3f" />
      <stop offset="1" stop-color="#f5ec45" />
    </linearGradient>
    <linearGradient id="f37cece9-54f5-4679-9ce1-526ab5f0e088" x1="91.12555" y1="58.39703" x2="121.2399" y2="24.90255"
      gradientUnits="userSpaceOnUse">
      <stop offset="0" stop-color="#f5ec45" />
      <stop offset="1" stop-color="#ef9a3f" />
    </linearGradient>
    <linearGradient id="a50b8eb8-9fc3-47e5-a19a-d69860eda609" x1="115.60021" y1="54.31674" x2="68.27779" y2="-0.38066"
      xlink:href="#f37cece9-54f5-4679-9ce1-526ab5f0e088" />
    <linearGradient id="bb157d2c-aa27-4615-be78-faa8ee668f13" x1="85.07612" y1="11.40091" x2="48.20137" y2="15.70295"
      xlink:href="#f37cece9-54f5-4679-9ce1-526ab5f0e088" />
    <linearGradient id="bd0eeb2e-240b-45d9-99eb-1d840a5ea096" x1="42.67912" y1="18.74434" x2="74.02249" y2="-10.44805"
      xlink:href="#f37cece9-54f5-4679-9ce1-526ab5f0e088" />
    <linearGradient id="ecaf45ce-e226-4e03-ad7a-29384b0d8b29" x1="54.56934" y1="48.43415" x2="-15.18511" y2="48.43415"
      gradientUnits="userSpaceOnUse">
      <stop offset="0" stop-color="#ef9a3f" />
      <stop offset="1" stop-color="#f5ec45" />
    </linearGradient>
    <linearGradient id="a3749a78-d105-4630-a901-aa40b80d2cf8" x1="9.25926" y1="40.15838" x2="64.26399" y2="92.09018"
      xlink:href="#f37cece9-54f5-4679-9ce1-526ab5f0e088" />
    <linearGradient id="b54c103c-76bb-4bf9-be05-b0bfda555ab7" x1="41.99187" y1="80.83041" x2="81.32493" y2="83.28873"
      xlink:href="#f37cece9-54f5-4679-9ce1-526ab5f0e088" />
    <linearGradient id="b456ea3b-0c77-4d98-9ab0-5470b75b15ae" x1="84.55164" y1="74.91327" x2="55.66656" y2="127.15228"
      xlink:href="#f37cece9-54f5-4679-9ce1-526ab5f0e088" />
  </defs>
  <path class="fdd18fc0-0c70-4273-8940-f6d2ba92042c"
    d="M175.97114,21.503a27.95064,27.95064,0,0,1,6.65194.727,38.6246,38.6246,0,0,1,5.19018,1.62493,30.66328,30.66328,0,0,1,4.597,2.35273q-1.32363,2.42354-2.78663,4.67474a35.7418,35.7418,0,0,1-3.55216,4.55162,18.19184,18.19184,0,0,0-2.92515-1.74112,20.76328,20.76328,0,0,0-3.23907-1.254,13.5749,13.5749,0,0,0-3.93608-.55708q-3.48417,0-4.70169,1.221a5.52437,5.52437,0,0,0-1.21868,4.01154,5.08683,5.08683,0,0,0,.694,2.89666,4.39017,4.39017,0,0,0,1.8403,1.53415,8.71031,8.71031,0,0,0,2.56972.69777q1.42412.17544,2.81364.38322,3.05475.49042,5.90259,1.11712a12.927,12.927,0,0,1,5.03556,2.26657,11.33852,11.33852,0,0,1,3.5068,4.64009,20.90287,20.90287,0,0,1,1.32017,8.23222,22.3109,22.3109,0,0,1-1.21252,7.95377,11.02686,11.02686,0,0,1-3.59982,4.95325,14.503,14.503,0,0,1-5.92884,2.54739,41.32936,41.32936,0,0,1-8.27456.73242,26.89587,26.89587,0,0,1-7.349-.90552,27.81323,27.81323,0,0,1-5.3987-2.08962,21.50118,21.50118,0,0,1-4.52774-3.06521,39.77437,39.77437,0,0,1,3.16978-4.597,29.06323,29.06323,0,0,1,4.00537-4.11,14.5162,14.5162,0,0,0,2.85593,2.08962,20.55991,20.55991,0,0,0,3.20366,1.39339,12.29718,12.29718,0,0,0,4.04072.627q4.10844,0,5.67643-1.18487,1.56722-1.18284,1.56718-4.31847a5.48625,5.48625,0,0,0-.7663-3.13443,4.84506,4.84506,0,0,0-1.95033-1.67182,10.13379,10.13379,0,0,0-2.68129-.801q-1.49907-.24348-3.03056-.45315-3.06513-.48579-5.81565-1.14868a13.04154,13.04154,0,0,1-4.84167-2.22961,10.88191,10.88191,0,0,1-3.34372-4.35311,18.85978,18.85978,0,0,1-1.25326-7.59289,21.9575,21.9575,0,0,1,1.184-7.76682,11.40043,11.40043,0,0,1,3.483-4.94555,13.43948,13.43948,0,0,1,5.57249-2.57742A34.38715,34.38715,0,0,1,175.97114,21.503Z" />
  <path class="fdd18fc0-0c70-4273-8940-f6d2ba92042c"
    d="M216.71933,74.58114q-.90588.06814-1.81112.13929-.76738.068-1.77569.10464-1.011.03455-1.91569.03458-.97642,0-1.81111-.03458-.83563-.0358-1.60183-.10464-.83668-.07045-1.60267-.13929L194.56838,39.33467a41.47719,41.47719,0,0,1,5.18941-.627q2.54238-.13848,5.88641-.13929l4.24924,15.04585q.41777,1.46338.69631,2.82128.277,1.35839.4178,2.33355.20883,1.25445.27851,2.22885h.55778q.068-1.04447.27851-2.29814.13849-1.04551.38315-2.36883a25.65659,25.65659,0,0,1,.66166-2.71671l4.10995-15.04585q2.4374,0,5.43258.13929a42.3025,42.3025,0,0,1,5.64255.627Z" />
  <path class="fdd18fc0-0c70-4273-8940-f6d2ba92042c"
    d="M238.59183,60.09237a6.04294,6.04294,0,0,0,2.15962,4.59775,8.34446,8.34446,0,0,0,5.294,1.5326q2.29764,0,4.45769-.20928,2.1581-.20893,3.83151-.4878a35.66831,35.66831,0,0,0,3.62222-.6963q.068.697.13922,1.46261.068.697.10387,1.498.03465.80088.03542,1.56718,0,.83553-.03542,1.56726-.03581.73168-.10387,1.28867-.07045.697-.13922,1.184a16.28094,16.28094,0,0,1-3.1352.76637,29.783,29.783,0,0,1-3.76152.557q-2.22962.20883-5.0147.20921-9.056,0-13.54867-4.31923-4.49271-4.31727-4.49233-14.14026a26.184,26.184,0,0,1,1.14869-8.2892,14.18884,14.18884,0,0,1,3.34364-5.6072,13.10122,13.10122,0,0,1,5.294-3.20366,22.7947,22.7947,0,0,1,7.07052-1.01016q14.76618,0,14.76657,16.99618c0,.51159-.01155.94017-.03464,1.28867q-.0358.52172-.06923.97482-.037.45462-.10464,1.01016-.07035.55857-.13929,1.46261Zm6.26957-13.09552a6.80018,6.80018,0,0,0-4.38846,1.39339,5.28313,5.28313,0,0,0-1.74189,4.38846h10.65733q0-3.13444-1.07939-4.45776A4.19824,4.19824,0,0,0,244.8614,46.99685Z" />
  <path class="fdd18fc0-0c70-4273-8940-f6d2ba92042c"
    d="M263.87721,32.22958l10.86661-1.53184v8.2192h6.68659q.06921.69243.13923,1.45176.0693.69254.13929,1.59105.06918.90021.07,1.86809,0,1.03858-.07,1.93648-.0692.899-.13929,1.52105c-.04613.507-.09309.94633-.13923,1.31408h-6.68659V74.58114a14.17854,14.17854,0,0,1-1.46261.20928q-.69819.06815-1.56795.10388-.87134.03463-1.7757.03534-1.18526,0-2.26433-.03534-1.08015-.0358-1.91491-.10388-.97632-.07044-1.88111-.20928Z" />
  <path class="fdd18fc0-0c70-4273-8940-f6d2ba92042c"
    d="M292.85481,60.09237a6.04317,6.04317,0,0,0,2.15962,4.59775,8.34459,8.34459,0,0,0,5.294,1.5326q2.29775,0,4.45775-.20928,2.158-.20893,3.83144-.4878a35.668,35.668,0,0,0,3.62223-.6963q.068.697.13922,1.46261.06813.697.10387,1.498.03465.80088.03542,1.56718,0,.83553-.03542,1.56726-.0358.73168-.10387,1.28867-.07035.697-.13922,1.184a16.28105,16.28105,0,0,1-3.13521.76637,29.78322,29.78322,0,0,1-3.76144.557q-2.22961.20883-5.01477.20921-9.05589,0-13.5486-4.31923-4.49282-4.31727-4.49239-14.14026a26.18406,26.18406,0,0,1,1.14867-8.2892,14.18908,14.18908,0,0,1,3.34372-5.6072,13.10049,13.10049,0,0,1,5.294-3.20366,22.79533,22.79533,0,0,1,7.07052-1.01016q14.76618,0,14.76657,16.99618c0,.51159-.01155.94017-.03458,1.28867q-.03579.52172-.06929.97482-.037.45462-.10464,1.01016-.07035.55857-.13922,1.46261Zm6.26957-13.09552a6.80034,6.80034,0,0,0-4.38846,1.39339A5.28313,5.28313,0,0,0,292.994,52.7787h10.65733q0-3.13444-1.07939-4.45776A4.19806,4.19806,0,0,0,299.12438,46.99685Z" />
  <path class="fdd18fc0-0c70-4273-8940-f6d2ba92042c"
    d="M328.9368,52.84792l9.68251-14.27955q3.13443,0,6.33886.20928,3.20257.20893,6.33886.557L338.48009,55.70385l12.67773,18.87729q-1.116.06814-2.29891.13929-.97632.068-2.15962.10464-1.18526.03455-2.2289.03458-1.04438,0-2.15963-.03458-1.1148-.0358-2.01962-.10464-1.04551-.07045-2.02033-.13929l-9.334-15.11585.07,15.11585q-.76749.06814-1.67182.13929-.76749.068-1.81112.10464-1.04447.03455-2.15961.03458-1.11482,0-2.055-.03458c-.62631-.02387-1.17332-.05928-1.63648-.10464q-.83552-.07045-1.5326-.13929V21.92076q.76518-.06815,1.67182-.13929.7652-.068,1.74112-.10464.97516-.03454,2.15962-.03458.90481,0,1.84577.03458c.627.02386,1.1948.05928,1.70647.10464q.90471.07044,1.74181.13929Z" />
  <path class="ac348c09-0a9f-4c0d-9f21-108a8ba1edd0"
    d="M128.11223,51.36434l-6.29787,4.91705-10.14051,5.14708L97.385,56.58869l-12.54123-6.2226-6.53866-4.9097-4.96546-4.84671L66.23634,35.286c-9.61779-7.55459-22.48606-16.10245-37.1645-16.10245-22.95167,0-28.269,23.81531-28.269,23.81531l6.29787-4.917,10.14051-5.14709L31.53018,37.7745l12.54123,6.2226L50.61,48.90684l4.9655,4.84667,7.103,5.32359c9.61779,7.55469,22.48611,16.10255,37.16469,16.10255C124.708,75.17965,128.11223,51.36434,128.11223,51.36434Z" />
  <path class="b081c75e-43f1-41a9-af4e-67b236eb1a75"
    d="M122.07046,26.67925s14.545,17.92519,1.22913,33.49445-41.22788-9.21865-49.96-19.564c0,0,19.897,20.20423,38.75753,15.53323l7.259-5.80242,4.60933-9.26986L122.94113,33.286Z" />
  <path class="a2ec8570-6bb6-4b05-8275-2cb4a39f5ac6"
    d="M73.33957,40.60968s23.66124,22.96983,36.49055,12.29155-4.45568-32.64944-24.58311-27.656l-.76821-3.39938-4.955-10.96636L70.49717,5.3099l-6.4915-3.87956L60.92.35487A31.694,31.694,0,0,1,92.00738,14.106s19.82012-.128,30.06308,12.57321.717,26.76253-8.19438,29.053S92.51953,57.92026,73.33957,40.60968Z" />
  <path class="a0006482-945f-474a-b6ef-c3b987396366"
    d="M85.247,25.24523S84.7605-1.33526,60.92.35487l-.68089.153-2.97459.84562L52.38635,4.23438,48.1035,8.65165l-1.306,4.99344,1.498,5.14708.64016,1.84373S68.65344-6.40549,85.247,25.24523Z" />
  <path class="a6d10479-98c2-41d3-94d7-21435567dabe"
    d="M40.02437,16.846A27.325,27.325,0,0,1,60.92.35487s-15.15959,3.1753-11.98429,20.281Z" />
  <path class="b4f74ce4-d10d-4792-a5c0-73de3ac6a9b8"
    d="M6.84463,67.68394s-14.545-17.92515-1.22917-33.49446,41.22792,9.21866,49.96,19.564c0,0-19.89693-20.20423-38.75749-15.53323L9.559,44.0227,4.94969,53.2926,5.974,61.07723Z" />
  <path class="f98fe767-f0e8-4b8b-8b8f-f273351607be"
    d="M55.57548,53.75351S31.91428,30.78368,19.085,41.462s4.45568,32.64939,24.58311,27.656l.76821,3.39938,4.955,10.96636,9.0266,5.56963,6.49146,3.87952,3.0857,1.07552A31.694,31.694,0,0,1,36.90772,80.25719s-19.82013.12805-30.06309-12.57325-.717-26.76249,8.19438-29.053S36.39556,36.44292,55.57548,53.75351Z" />
  <path class="f57ed8d8-dd1d-49a1-9149-71178fd184d0"
    d="M43.66808,69.118s.48651,26.58048,24.327,24.89041l.68084-.153,2.97464-.84567,4.87818-2.88085,4.28285-4.41722,1.306-4.99348-1.498-5.14708-.64016-1.84374S60.26165,100.76868,43.66808,69.118Z" />
  <path class="a82d4eee-dc87-4050-bf8f-e8ae07b7a02e"
    d="M88.89072,77.5172A27.32506,27.32506,0,0,1,67.99508,94.00837S83.15467,90.833,79.97937,73.72728Z" />
</svg>