<svg xmlns="http://www.w3.org/2000/svg" width="206" height="50" viewBox="0 0 206 50">
    <defs>
        <clipPath id="64kkvxmcda">
            <path data-name="Rectangle 3458" style="fill:#7f3fd9" d="M0 0h206v50H0z"/>
        </clipPath>
    </defs>
    <g data-name="Group 7490">
        <g data-name="Group 7489" style="clip-path:url(#64kkvxmcda)">
            <path data-name="Path 1998" d="M88.02 17.8v28.13a1.655 1.655 0 0 1-1.654 1.658h-4.472a1.655 1.655 0 0 1-1.654-1.658V17.8a1.655 1.655 0 0 1 1.654-1.657h4.472A1.655 1.655 0 0 1 88.02 17.8M86.366 3.6h-4.472a1.656 1.656 0 0 0-1.654 1.658v4.485a1.655 1.655 0 0 0 1.654 1.657h4.472a1.655 1.655 0 0 0 1.654-1.657V5.258A1.656 1.656 0 0 0 86.366 3.6M75.24 15.542h-.078a8.009 8.009 0 0 0-4.705 1.309 14.786 14.786 0 0 0-3.333 2.621l-.107-1.784a1.655 1.655 0 0 0-1.651-1.558h-4.109a1.655 1.655 0 0 0-1.657 1.657v28.2a1.656 1.656 0 0 0 1.654 1.658h4.479a1.656 1.656 0 0 0 1.654-1.658V26.156a5.378 5.378 0 0 1 2.287-2.228 7.521 7.521 0 0 1 3.594-.917 8.315 8.315 0 0 1 1.307.066h.014a1.291 1.291 0 0 0 1.468-1.166l.382-4.993a1.266 1.266 0 0 0-1.2-1.378m-24.248-4.469A24.963 24.963 0 0 1 14.4 44.282l-5.355 4.86A3.3 3.3 0 0 1 6.828 50H1.657a1.658 1.658 0 0 1-1.109-2.886l9.016-8.184a24.963 24.963 0 0 1 36.59-33.212L51.506.86A3.3 3.3 0 0 1 53.732 0l5.158.011A1.658 1.658 0 0 1 60 2.9zM15.723 33.339l9.387-8.52-5.124-7.553a1.658 1.658 0 0 1 1.367-2.589h4.329a3.3 3.3 0 0 1 2.735 1.451l2.389 3.521 9.188-8.339a16.781 16.781 0 0 0-24.271 22.03M47.054 25a16.749 16.749 0 0 0-2.221-8.339L34.9 25.679l5.147 7.584a1.658 1.658 0 0 1-1.368 2.589h-4.331a3.3 3.3 0 0 1-2.734-1.452L29.2 30.849l-8.637 7.841A16.75 16.75 0 0 0 47.054 25M204.344.019h-5.164a3.3 3.3 0 0 0-2.221.858l-20.678 18.785-9.889-14.574a3.3 3.3 0 0 0-2.735-1.451h-4.329a1.658 1.658 0 0 0-1.368 2.589l12.627 18.608-14.43 13.109v-7.864a17.241 17.241 0 0 0-2.918-10.393q-2.917-4.009-8.941-4.009a12.863 12.863 0 0 0-5.772 1.228 23.382 23.382 0 0 0-2.639 1.527l-.037-.681a1.656 1.656 0 0 0-1.65-1.571h-4.057a1.656 1.656 0 0 0-1.654 1.658v28.128a1.655 1.655 0 0 0 1.654 1.657h4.473a1.655 1.655 0 0 0 1.653-1.657V24.859a10.715 10.715 0 0 1 1.538-1.464 6.94 6.94 0 0 1 4.359-1.3 5.364 5.364 0 0 1 4.753 2.107q1.458 2.107 1.458 6.509v15.247a1.655 1.655 0 0 0 1.661 1.658l4.5-.021a4.4 4.4 0 0 0 2.94-1.143l17.19-15.6 10.41 15.341a3.3 3.3 0 0 0 2.734 1.451h4.329a1.657 1.657 0 0 0 1.367-2.589l-13.145-19.376L205.454 2.9a1.658 1.658 0 0 0-1.11-2.886m-79.5 31.725a16.5 16.5 0 1 1-16.5-16.537 16.518 16.518 0 0 1 16.5 16.537m-7.294 0a9.207 9.207 0 1 0-9.207 9.229 9.218 9.218 0 0 0 9.207-9.229" style="fill:#7f3fd9"/>
        </g>
    </g>
</svg>
