<?xml version="1.0" encoding="UTF-8"?>
<svg xmlns="http://www.w3.org/2000/svg" width="314" height="60" viewBox="0 0 314 60">
  <defs>
    <clipPath id="j1ysnh8ita">
      <path data-name="Rectangle 880" transform="translate(.021)" style="fill:none" d="M0 0h314v60H0z"/>
    </clipPath>
    <clipPath id="c1muuyr3zb">
      <path data-name="Rectangle 879" transform="translate(.021)" style="fill:none" d="M0 0h314v60H0z"/>
    </clipPath>
    <clipPath id="cvyyb1nwwc">
      <path data-name="Rectangle 878" style="fill:none" d="M0 0h24.264v39.529H0z"/>
    </clipPath>
  </defs>
  <g data-name="Group 537">
    <g data-name="Group 536" style="clip-path:url(#j1ysnh8ita)" transform="translate(-.021)">
      <g data-name="Group 535">
        <g data-name="Group 534" style="clip-path:url(#c1muuyr3zb)">
          <path data-name="Path 516" d="M214.273 19.523h5.846V43.05h-5.846V19.523zm0-10.1v5.834h5.846V9.424h-5.846zm83.807 19.934a13.379 13.379 0 0 1-.093 1.564q-.1.789-.284 1.635h-15.227a7.509 7.509 0 0 0 1.378 3.54 6.274 6.274 0 0 0 2.569 1.987 8.374 8.374 0 0 0 3.265.635 13.268 13.268 0 0 0 3.819-.529 14.805 14.805 0 0 0 3.252-1.4l.284 4.94a16.543 16.543 0 0 1-3.348 1.248 17.391 17.391 0 0 1-4.525.541 13.6 13.6 0 0 1-7.107-1.705 10.937 10.937 0 0 1-4.254-4.517 13.487 13.487 0 0 1-1.414-6.152 13.381 13.381 0 0 1 1.332-5.952 10.73 10.73 0 0 1 3.9-4.387 11.321 11.321 0 0 1 6.271-1.659 10.644 10.644 0 0 1 5.657 1.388 8.825 8.825 0 0 1 3.395 3.705 11.514 11.514 0 0 1 1.131 5.117m-15.464-.756h9.523a6.04 6.04 0 0 0-.4-2.128 4.056 4.056 0 0 0-1.332-1.8 3.965 3.965 0 0 0-2.51-.729 4.764 4.764 0 0 0-3.56 1.317 6.546 6.546 0 0 0-1.72 3.339m31.425-9.478a6.15 6.15 0 0 0-1.031-.1 6.039 6.039 0 0 0-3.536.98 11.137 11.137 0 0 0-2.5 1.96l-.147-2.5h-5.5v23.584h5.844V26.97a4.028 4.028 0 0 1 1.718-1.666 5.658 5.658 0 0 1 2.7-.687 6.281 6.281 0 0 1 .982.049 7.674 7.674 0 0 1 1.031.2l.442-5.734zm-158.719.344-5.992 15.438-6.237-15.433h-6.482l9.527 23.573-3.929 10.1h6.289l13.113-33.67h-6.286zm-44.689 9.85A9.159 9.159 0 0 0 107 26.184a29.454 29.454 0 0 0-6.041-2.5 47.977 47.977 0 0 1-3.585-1.274 6.47 6.47 0 0 1-2.307-1.47 3.158 3.158 0 0 1-.786-2.254 2.82 2.82 0 0 1 1.424-2.6 7.737 7.737 0 0 1 4.076-.882 18.878 18.878 0 0 1 4.96.637 36.167 36.167 0 0 1 5.205 1.912l.59-6.175a31.078 31.078 0 0 0-4.666-1.47 24.29 24.29 0 0 0-5.745-.686 15.787 15.787 0 0 0-6.68 1.225 8.821 8.821 0 0 0-4.027 3.332 8.995 8.995 0 0 0-1.326 4.852 7.689 7.689 0 0 0 1.228 4.557 9.782 9.782 0 0 0 3.34 2.941 28.426 28.426 0 0 0 4.764 2.107c1.718.589 3.192 1.127 4.321 1.617a7.362 7.362 0 0 1 2.5 1.618 3.57 3.57 0 0 1 .834 2.4 3.175 3.175 0 0 1-1.473 2.89 6.989 6.989 0 0 1-3.88.931 17.031 17.031 0 0 1-3.83-.441 29.422 29.422 0 0 1-3.683-1.127 36.483 36.483 0 0 1-3.437-1.47l-.688 6.42a24.93 24.93 0 0 0 2.9 1.078 35.745 35.745 0 0 0 3.929.931 24.46 24.46 0 0 0 4.126.392 19.448 19.448 0 0 0 6.728-.931 9.614 9.614 0 0 0 3.88-2.45 7.477 7.477 0 0 0 1.768-3.137 12.269 12.269 0 0 0 .443-3.087 8.454 8.454 0 0 0-1.228-4.754m16.206 1.422 8.593-11.271H128.8l-7.318 9.654V9.375h-5.843v33.67h5.843V32.556L129 43h6.63zm59.9-1.422a9.159 9.159 0 0 0-3.634-3.136 29.454 29.454 0 0 0-6.041-2.5 47.977 47.977 0 0 1-3.585-1.274 6.475 6.475 0 0 1-2.308-1.47 3.162 3.162 0 0 1-.785-2.254 2.818 2.818 0 0 1 1.424-2.6 7.737 7.737 0 0 1 4.076-.882 18.883 18.883 0 0 1 4.96.637 36.166 36.166 0 0 1 5.205 1.912l.59-6.175a31.078 31.078 0 0 0-4.666-1.47 24.3 24.3 0 0 0-5.746-.686 15.782 15.782 0 0 0-6.679 1.225 8.822 8.822 0 0 0-4.027 3.332 8.995 8.995 0 0 0-1.326 4.852 7.689 7.689 0 0 0 1.228 4.557 9.778 9.778 0 0 0 3.339 2.941 28.5 28.5 0 0 0 4.764 2.107c1.719.589 3.193 1.127 4.322 1.617a7.362 7.362 0 0 1 2.5 1.618 3.57 3.57 0 0 1 .834 2.4 3.175 3.175 0 0 1-1.473 2.89 6.993 6.993 0 0 1-3.88.931 17.031 17.031 0 0 1-3.832-.432 29.421 29.421 0 0 1-3.683-1.127 36.5 36.5 0 0 1-3.438-1.47l-.687 6.42a24.929 24.929 0 0 0 2.9 1.078 35.746 35.746 0 0 0 3.929.931 24.449 24.449 0 0 0 4.125.392 19.45 19.45 0 0 0 6.729-.931 9.614 9.614 0 0 0 3.88-2.45 7.477 7.477 0 0 0 1.768-3.137 12.31 12.31 0 0 0 .442-3.087 8.462 8.462 0 0 0-1.227-4.754m16.206 1.422 8.593-11.271h-6.63l-7.318 9.654V9.375h-5.843v33.67h5.843V32.556L205.1 43h6.63zm44.53.539a14.626 14.626 0 0 1-1.227 6.077 10.743 10.743 0 0 1-3.585 4.46 9.793 9.793 0 0 1-5.844 1.666 11.314 11.314 0 0 1-4.469-.736 10.438 10.438 0 0 1-1.964-1.175v11.518h-5.845V19.471h4.715l.639 2.156a14.716 14.716 0 0 1 2.307-1.568 11.3 11.3 0 0 1 10.51.687A10.74 10.74 0 0 1 246.3 25.2a15.6 15.6 0 0 1 1.178 6.077m-5.991 0a8.946 8.946 0 0 0-1.473-5.342 4.7 4.7 0 0 0-4.077-2.058 5.491 5.491 0 0 0-3.339.93 5.415 5.415 0 0 0-1.916 2.6 11.678 11.678 0 0 0-.589 3.872 11.676 11.676 0 0 0 .589 3.871 5.19 5.19 0 0 0 1.916 2.6 5.491 5.491 0 0 0 3.339.931 4.7 4.7 0 0 0 4.077-2.059 8.945 8.945 0 0 0 1.473-5.341m32.079 0a14.627 14.627 0 0 1-1.228 6.077 10.744 10.744 0 0 1-3.585 4.46 9.791 9.791 0 0 1-5.844 1.666 11.309 11.309 0 0 1-4.468-.736 10.414 10.414 0 0 1-1.965-1.175v11.519h-5.843V19.471h4.714l.639 2.156a14.724 14.724 0 0 1 2.308-1.568 11.295 11.295 0 0 1 10.509.687 10.741 10.741 0 0 1 3.585 4.459 15.6 15.6 0 0 1 1.179 6.077m-5.992 0a8.939 8.939 0 0 0-1.475-5.342 4.7 4.7 0 0 0-4.076-2.058 5.5 5.5 0 0 0-3.34.93 5.407 5.407 0 0 0-1.915 2.6 11.651 11.651 0 0 0-.59 3.872 11.649 11.649 0 0 0 .59 3.871 5.183 5.183 0 0 0 1.915 2.6 5.5 5.5 0 0 0 3.34.931 4.7 4.7 0 0 0 4.076-2.059 8.938 8.938 0 0 0 1.473-5.341M66.98 42.8 2.88 54.985a.263.263 0 0 0 .091.517l64.418-10.381a1.176 1.176 0 1 0-.409-2.321M56.7 54.555.24 59.476A.262.262 0 0 0 .278 60l56.589-3.1a1.176 1.176 0 1 0-.167-2.347M5.861 50.57l17.163-4.1a.981.981 0 1 0-.54-1.885L5.741 50.15a.219.219 0 0 0 .12.42m72.947-37.252a2.578 2.578 0 0 1-.3 2.16l-.018.024A41.634 41.634 0 0 1 64 28.877a18.536 18.536 0 0 1-2.331 1.216c1.672 6.494.219 6.9-16.154 11.454-16.066 4.464-17.776 4.933-19.751-1.465 0 0-.782.079-2.638.164a41.716 41.716 0 0 1-19.36-3.979l-.026-.013A2.724 2.724 0 0 1 2.664 32.4l.018-.024a41.86 41.86 0 0 1 17.034-14.691C19.149 10.6 25.161 3.369 34.162.868s17.892.581 21.08 6.94A41.771 41.771 0 0 1 77.4 11.613l.027.013a2.583 2.583 0 0 1 1.379 1.692m-51.709 2a440.332 440.332 0 0 1 9.738-2.831l.5-.138h.017c.25-.07 8.219-2.284 15.663-4.038C50.083 3.21 42.475.84 34.753 2.986c-.063.018-.125.038-.188.057-7.552 2.2-8.72 8.345-7.467 12.275m-9.828 13.96 58.1-16.145a39.1 39.1 0 0 0-19.888-3.141c-7.238 1.641-15.826 4-17.483 4.455l-.067.018-.1.028-.4.112a436.107 436.107 0 0 0-11.775 3.458c-3.331 2.38-7.184 5.793-8.381 11.215m35.72-7.643a21.586 21.586 0 0 1-3.371 10.217 273.25 273.25 0 0 0 3.713-1.166l.052-.023c3.768-1.847 7.329-6.87 8.971-11.633zm-9.72 12.081.039-.011.026-.008c.5-.139 1.631-.459 3.162-.909a9.74 9.74 0 0 0 .484-.285 17.583 17.583 0 0 0 2.205-9.814l-30.778 8.554A44.606 44.606 0 0 0 30.019 37c6.085-1.329 11.928-2.922 13.257-3.288m16.315-2.822c-7.288 2.6-15.438 4.863-15.691 4.934-.216.06-6.1 1.7-12.512 3.127a10.181 10.181 0 0 0 1.242 3.572c2.647-.415 6.69-1.538 12.293-3.1 8.106-2.253 13-3.612 14.572-4.978.611-.531.69-1.165.1-3.56m16.361-15.633-10.076 2.8a29.082 29.082 0 0 1-7.749 11.023c.8-.28 1.592-.565 2.367-.853a39.087 39.087 0 0 0 15.458-12.97" style="fill:#3c3e42"/>
          <g data-name="Group 533" style="opacity:.5">
            <g data-name="Group 532">
              <g data-name="Group 531" style="clip-path:url(#cvyyb1nwwc)" transform="translate(17.27 2.995)">
                <path data-name="Path 517" d="m32.717 25.139-15.12 4.2c.061-.276.133-.544.208-.809.022-.082.042-.167.068-.248.075-.249.155-.491.24-.731.032-.089.064-.179.1-.267.088-.234.181-.465.28-.691.034-.081.072-.163.109-.243.105-.229.211-.457.327-.678.027-.055.058-.107.085-.161a16.893 16.893 0 0 1 1.876-2.794c.048-.058.094-.118.143-.174.146-.173.3-.343.446-.509l.184-.2q.222-.241.451-.473l.186-.186c.157-.156.314-.309.474-.458l.142-.129A29.472 29.472 0 0 1 25.3 18.62l.066-.049q.3-.226.606-.441c2.774-.862 5.476-1.66 7.651-2.288-1.062 1.683-1.636 4.926-.912 9.3m.576 2.122-14.548 4.043c.28.187.6.4.948.624l.032.021c.152.1.311.2.475.3l.119.074c.149.094.306.19.464.288l.112.069c.389.238.8.485 1.24.736l.171.1c.162.093.328.186.5.28l.2.112c.184.1.371.2.559.3l.135.073q.358.19.726.378l.117.059c.2.1.409.206.618.307l.218.106c.185.089.374.177.562.264.072.032.14.066.212.1q.359.165.726.322l.043.019q.4.169.8.328l.171.067c.207.08.415.16.625.236l.223.081q.311.11.62.212l.185.061c.271.087.542.17.813.246a258.3 258.3 0 0 0 9.452-2.273c-1.864-1-4.839-4.086-6.5-7.533m7.11 9.646c-2.312.6-5.432 1.38-8.688 2.108a10.176 10.176 0 0 0 1.24 3.572c2.079-.327 5.024-1.091 8.905-2.158-.74-.7-1.062-1.871-1.457-3.522m-12.99-21.529c2.069-.629 4.019-1.2 5.657-1.674-2.259-4.966-.259-9.994 1.97-10.65l-.161.048a13.848 13.848 0 0 0-3.065 1.283l-.031.019c-.163.094-.319.191-.472.29l-.057.037a20.301 20.301 0 0 0-.484.337c-.142.106-.281.213-.414.322l-.019.016a9.241 9.241 0 0 0-2.017 2.3.4.4 0 0 0-.027.043c-.075.123-.146.249-.215.374-.01.022-.023.043-.034.064-.066.124-.129.25-.186.375l-.029.061c-.06.129-.117.26-.169.39a.136.136 0 0 0-.012.027 9.3 9.3 0 0 0-.577 2.173v.019c-.018.134-.031.268-.045.4v.056a7.182 7.182 0 0 0-.026.387v.062c0 .129-.008.259-.008.387v.043a9.407 9.407 0 0 0 .434 2.805" transform="translate(-17.597 -3.058)" style="fill:#3c3e42"/>
              </g>
            </g>
          </g>
        </g>
      </g>
    </g>
  </g>
</svg>