<svg data-name="Group 4990" xmlns="http://www.w3.org/2000/svg" width="262" height="50" viewBox="0 0 262 50">
    <defs>
        <clipPath id="qozx5dv8na">
            <path data-name="Rectangle 941" style="fill:none" d="M0 0h262v50H0z"/>
        </clipPath>
        <clipPath id="gorykyaokb">
            <path data-name="Rectangle 939" style="fill:none" d="M0 0h20.243v32.941H0z"/>
        </clipPath>
    </defs>
    <g data-name="Group 4989" style="clip-path:url(#qozx5dv8na)">
        <g data-name="Group 4988">
            <g data-name="Group 4987" style="clip-path:url(#qozx5dv8na)">
                <path data-name="Path 523" d="M178.764 16.269h4.878v19.606h-4.878V16.269zm0-8.416v4.862h4.878V7.853h-4.878zm69.919 16.61a11.133 11.133 0 0 1-.078 1.3q-.08.657-.237 1.362h-12.7a6.253 6.253 0 0 0 1.15 2.95 5.233 5.233 0 0 0 2.144 1.656 7.008 7.008 0 0 0 2.724.529 11.081 11.081 0 0 0 3.186-.441 12.383 12.383 0 0 0 2.714-1.166l.236 4.117a13.812 13.812 0 0 1-2.793 1.04 14.525 14.525 0 0 1-3.775.451 11.357 11.357 0 0 1-5.93-1.421 9.118 9.118 0 0 1-3.549-3.764 11.229 11.229 0 0 1-1.18-5.127 11.139 11.139 0 0 1 1.111-4.959 8.952 8.952 0 0 1 3.254-3.657 9.459 9.459 0 0 1 5.232-1.382 8.888 8.888 0 0 1 4.719 1.157 7.357 7.357 0 0 1 2.832 3.088 9.583 9.583 0 0 1 .943 4.264m-12.9-.627h7.945a5.032 5.032 0 0 0-.335-1.774 3.38 3.38 0 0 0-1.111-1.5 3.31 3.31 0 0 0-2.094-.607 3.977 3.977 0 0 0-2.97 1.1 5.453 5.453 0 0 0-1.435 2.782M262 15.939a5.136 5.136 0 0 0-.861-.082 5.042 5.042 0 0 0-2.95.817 9.269 9.269 0 0 0-2.09 1.633l-.123-2.082h-4.588v19.646h4.875v-13.4a3.365 3.365 0 0 1 1.435-1.388 4.725 4.725 0 0 1 2.253-.572 5.246 5.246 0 0 1 .82.041 6.409 6.409 0 0 1 .861.163L262 15.94zm-132.417.286-5 12.865-5.2-12.865h-5.408l7.948 19.644-3.278 8.413h5.244l10.94-28.058h-5.244zM92.3 24.434a7.639 7.639 0 0 0-3.032-2.613 24.588 24.588 0 0 0-5.04-2.083 39.469 39.469 0 0 1-2.991-1.062 5.4 5.4 0 0 1-1.925-1.225 2.63 2.63 0 0 1-.656-1.878 2.349 2.349 0 0 1 1.188-2.164 6.461 6.461 0 0 1 3.4-.735 15.766 15.766 0 0 1 4.138.531 30.194 30.194 0 0 1 4.344 1.595l.492-5.146a26.044 26.044 0 0 0-3.893-1.225 20.289 20.289 0 0 0-4.794-.571 13.18 13.18 0 0 0-5.571 1.016 7.358 7.358 0 0 0-3.36 2.776 7.489 7.489 0 0 0-1.106 4.043 6.4 6.4 0 0 0 1.024 3.8 8.15 8.15 0 0 0 2.782 2.451 23.748 23.748 0 0 0 3.979 1.756c1.435.491 2.664.939 3.606 1.348a6.143 6.143 0 0 1 2.09 1.348 2.971 2.971 0 0 1 .7 2 2.645 2.645 0 0 1-1.234 2.404 5.839 5.839 0 0 1-3.237.776 14.224 14.224 0 0 1-3.2-.367 24.565 24.565 0 0 1-3.073-.939 30.364 30.364 0 0 1-2.867-1.225l-.574 5.35a20.813 20.813 0 0 0 2.417.9 29.849 29.849 0 0 0 3.278.776 20.429 20.429 0 0 0 3.442.326 16.242 16.242 0 0 0 5.613-.776 8.022 8.022 0 0 0 3.237-2.041 6.229 6.229 0 0 0 1.475-2.614 10.251 10.251 0 0 0 .369-2.573 7.044 7.044 0 0 0-1.021-3.959m13.521 1.185 7.169-9.393h-5.531l-6.1 8.045V7.813h-4.88v28.058h4.875V27.13l6.269 8.7h5.531zm49.971-1.185a7.639 7.639 0 0 0-3.032-2.613 24.607 24.607 0 0 0-5.04-2.083 39.469 39.469 0 0 1-2.991-1.062 5.4 5.4 0 0 1-1.929-1.226 2.633 2.633 0 0 1-.655-1.878 2.348 2.348 0 0 1 1.188-2.164 6.461 6.461 0 0 1 3.4-.735 15.771 15.771 0 0 1 4.138.531 30.194 30.194 0 0 1 4.343 1.593l.491-5.146a26.032 26.032 0 0 0-3.892-1.225 20.294 20.294 0 0 0-4.794-.571 13.177 13.177 0 0 0-5.572 1.021 7.358 7.358 0 0 0-3.359 2.777 7.489 7.489 0 0 0-1.106 4.043 6.4 6.4 0 0 0 1.024 3.8 8.155 8.155 0 0 0 2.786 2.451 23.787 23.787 0 0 0 3.978 1.753c1.435.491 2.663.939 3.606 1.348a6.151 6.151 0 0 1 2.09 1.348 2.971 2.971 0 0 1 .7 2 2.645 2.645 0 0 1-1.229 2.409 5.839 5.839 0 0 1-3.237.776 14.224 14.224 0 0 1-3.2-.367 24.565 24.565 0 0 1-3.073-.939 30.469 30.469 0 0 1-2.868-1.225l-.573 5.35a20.813 20.813 0 0 0 2.417.9 29.851 29.851 0 0 0 3.278.776 20.411 20.411 0 0 0 3.441.326 16.247 16.247 0 0 0 5.614-.776 8.022 8.022 0 0 0 3.237-2.041 6.238 6.238 0 0 0 1.475-2.614 10.247 10.247 0 0 0 .368-2.573 7.044 7.044 0 0 0-1.023-3.962m13.521 1.185 7.169-9.393h-5.531l-6.1 8.045V7.813h-4.882v28.058h4.876V27.13l6.269 8.7h5.531zm37.151.449a12.164 12.164 0 0 1-1.024 5.064 8.947 8.947 0 0 1-2.99 3.717 8.177 8.177 0 0 1-4.876 1.388 9.449 9.449 0 0 1-3.729-.613 8.686 8.686 0 0 1-1.638-.979v9.6h-4.878V16.226h3.933l.533 1.8a12.279 12.279 0 0 1 1.925-1.307 9.434 9.434 0 0 1 8.768.572A8.944 8.944 0 0 1 205.48 21a12.972 12.972 0 0 1 .983 5.064m-5 0a7.449 7.449 0 0 0-1.229-4.452 3.92 3.92 0 0 0-3.4-1.715 4.585 4.585 0 0 0-2.786.775 4.508 4.508 0 0 0-1.6 2.165 9.722 9.722 0 0 0-.491 3.226 9.72 9.72 0 0 0 .491 3.226 4.321 4.321 0 0 0 1.6 2.165 4.585 4.585 0 0 0 2.786.776 3.921 3.921 0 0 0 3.4-1.716 7.448 7.448 0 0 0 1.229-4.451m26.763 0a12.177 12.177 0 0 1-1.024 5.064 8.955 8.955 0 0 1-2.991 3.717 8.175 8.175 0 0 1-4.876 1.388 9.444 9.444 0 0 1-3.728-.613 8.69 8.69 0 0 1-1.639-.979v9.6H209.1V16.226h3.933l.533 1.8a12.247 12.247 0 0 1 1.926-1.307 9.432 9.432 0 0 1 8.768.572A8.952 8.952 0 0 1 227.245 21a12.987 12.987 0 0 1 .983 5.064m-5 0A7.437 7.437 0 0 0 222 21.617a3.92 3.92 0 0 0-3.4-1.715 4.589 4.589 0 0 0-2.786.775 4.506 4.506 0 0 0-1.6 2.165 9.7 9.7 0 0 0-.492 3.226 9.7 9.7 0 0 0 .492 3.226 4.32 4.32 0 0 0 1.6 2.165 4.589 4.589 0 0 0 2.786.776 3.921 3.921 0 0 0 3.4-1.716 7.436 7.436 0 0 0 1.229-4.451M55.881 35.67 2.4 45.821a.219.219 0 0 0 .076.431L56.221 37.6a.98.98 0 1 0-.341-1.93m-8.58 9.793-47.1 4.1A.218.218 0 0 0 .232 50l47.211-2.581a.98.98 0 1 0-.139-1.956M4.89 42.142l14.319-3.414a.818.818 0 1 0-.45-1.571l-13.97 4.635a.183.183 0 0 0 .1.35M65.748 11.1a2.146 2.146 0 0 1-.254 1.8l-.015.02a34.719 34.719 0 0 1-12.086 11.144 15.471 15.471 0 0 1-1.945 1.014c1.4 5.411.183 5.753-13.477 9.545-13.4 3.72-14.83 4.111-16.478-1.221 0 0-.653.066-2.2.136a34.837 34.837 0 0 1-16.151-3.315l-.023-.011a2.27 2.27 0 0 1-.9-3.21l.015-.02a34.907 34.907 0 0 1 14.215-12.245C15.975 8.83 20.991 2.808 28.5.723s14.927.484 17.587 5.784a34.884 34.884 0 0 1 18.487 3.171l.023.011a2.153 2.153 0 0 1 1.15 1.41m-43.14 1.667a376.38 376.38 0 0 1 8.123-2.359l.413-.115h.015c.209-.058 6.857-1.9 13.067-3.365C41.784 2.675 35.436.7 28.994 2.489l-.157.047c-6.3 1.831-7.275 6.955-6.229 10.23m-8.2 11.634 48.468-13.456a32.64 32.64 0 0 0-16.588-2.616c-6.039 1.366-13.2 3.33-14.586 3.712l-.056.015-.086.024-.336.093c-1.432.4-5.534 1.55-9.825 2.882-2.778 1.983-5.993 4.828-6.992 9.345m29.8-6.37a17.975 17.975 0 0 1-2.807 8.514c.968-.3 2.014-.623 3.1-.971l.043-.019c3.143-1.539 6.115-5.725 7.485-9.694zM36.1 28.1l.033-.009.021-.007c.416-.116 1.361-.383 2.638-.757.137-.076.272-.154.4-.238a14.639 14.639 0 0 0 1.84-8.178l-25.67 7.125a37.231 37.231 0 0 0 9.682 4.8C30.121 29.729 35 28.4 36.1 28.1m13.611-2.355c-6.08 2.165-12.88 4.052-13.092 4.112a233.73 233.73 0 0 1-10.438 2.606 8.5 8.5 0 0 0 1.035 2.977c2.208-.346 5.582-1.281 10.256-2.579 6.763-1.877 10.846-3.01 12.158-4.149.51-.442.576-.97.08-2.967M63.369 12.71l-8.406 2.334a24.235 24.235 0 0 1-6.463 9.185c.666-.233 1.328-.471 1.975-.711a32.594 32.594 0 0 0 12.9-10.808" style="fill:#eeb433"/>
                <g data-name="Group 4986" style="opacity:.4">
                    <g data-name="Group 4985">
                        <g data-name="Group 4984" style="clip-path:url(#gorykyaokb)" transform="translate(14.408 2.496)">
                            <path data-name="Path 524" d="M20.342 19.442c.04-.048.079-.1.12-.145.122-.144.246-.286.372-.424l.153-.167q.185-.2.377-.394l.156-.155c.131-.13.262-.258.4-.382.039-.037.079-.072.119-.108a24.582 24.582 0 0 1 1.993-1.641l.055-.041q.254-.189.505-.367a342.407 342.407 0 0 1 6.384-1.907c-.887 1.4-1.366 4.1-.761 7.75l-12.615 3.5c.051-.23.111-.453.174-.674.018-.069.035-.139.056-.206.062-.207.129-.409.2-.609.027-.074.053-.149.081-.223a10.8 10.8 0 0 1 .324-.776c.088-.191.176-.381.273-.565.023-.046.048-.089.071-.134a14.076 14.076 0 0 1 1.565-2.329m15.774 10.06a15.76 15.76 0 0 1-5.426-6.277L18.55 26.6c.233.156.5.331.791.52l.027.017c.127.082.26.166.4.251l.1.062.387.24.093.057c.324.2.671.4 1.034.613l.142.082c.135.078.273.155.413.233l.167.093.467.253.113.061q.3.158.606.315l.1.049c.17.086.341.171.516.255l.182.088c.155.074.312.148.469.22l.175.081q.3.137.608.269l.036.016c.219.094.441.185.664.273l.142.056.522.2.186.068q.259.092.517.176l.154.051c.226.073.452.142.678.2a216.548 216.548 0 0 0 7.885-1.894m.506 1.761c-1.929.5-4.532 1.15-7.248 1.756A8.457 8.457 0 0 0 30.41 36c1.734-.273 4.191-.909 7.429-1.8a5.892 5.892 0 0 1-1.215-2.935M25.8 13.327c1.726-.524 3.353-1 4.719-1.395C28.631 7.8 30.3 3.6 32.159 3.058l-.134.04a11.56 11.56 0 0 0-2.557 1.069l-.026.016a8.438 8.438 0 0 0-.394.242l-.048.03a9.963 9.963 0 0 0-.361.25l-.043.031a8.59 8.59 0 0 0-.346.269l-.016.013a7.7 7.7 0 0 0-1.683 1.921l-.023.036a6.32 6.32 0 0 0-.179.312l-.029.053c-.055.1-.107.208-.156.313l-.025.051c-.05.108-.1.216-.141.325a.113.113 0 0 0-.01.023 7.747 7.747 0 0 0-.481 1.811v.016c-.015.112-.026.224-.038.335v.047a7.04 7.04 0 0 0-.02.322v.051c0 .108-.007.215-.007.322v.036a7.831 7.831 0 0 0 .362 2.338" transform="translate(-17.597 -3.058)" style="fill:#eeb433"/>
                        </g>
                    </g>
                </g>
            </g>
        </g>
    </g>
</svg>