<svg width="279" height="64" viewBox="0 0 279 64" fill="none" xmlns="http://www.w3.org/2000/svg">
<path d="M88.6271 54.0898L77 24.4993H85.661L94.0847 46.9881H94.6186L103.042 24.4993H111.585L99.8983 54.0898H88.6271ZM121.793 54.8C119.143 54.8 117.007 54.1687 115.386 52.9062C113.764 51.6042 112.954 49.7696 112.954 47.4024C112.954 45.114 113.705 43.3386 115.208 42.0761C116.75 40.8136 118.53 39.9456 120.547 39.4721C122.603 38.9987 124.917 38.6436 127.488 38.4069C129.505 38.2885 131.067 38.0321 132.174 37.6375C133.321 37.243 133.894 36.4934 133.894 35.3886C133.894 33.8105 133.341 32.6071 132.233 31.7786C131.166 30.9106 129.861 30.4766 128.318 30.4766C126.499 30.4766 125.016 30.9698 123.869 31.9561C122.722 32.9425 122.05 34.3234 121.852 36.0988H114.199C114.318 33.5343 115.03 31.3446 116.335 29.5297C117.64 27.6754 119.341 26.2748 121.437 25.3279C123.572 24.381 125.906 23.9075 128.437 23.9075C130.968 23.9075 133.222 24.381 135.199 25.3279C137.177 26.2748 138.719 27.6557 139.827 29.4705C140.934 31.2854 141.488 33.4554 141.488 35.9805V46.8697H144.928V54.0898H133.954V43.4373C133.281 46.7514 131.897 49.4737 129.801 51.6042C127.745 53.7347 125.075 54.8 121.793 54.8ZM125.886 48.4085C127.31 48.4085 128.635 47.9942 129.861 47.1657C131.086 46.3371 132.055 45.2719 132.767 43.9699C133.519 42.6284 133.894 41.2081 133.894 39.7089L133.954 37.8742C133.479 38.3082 132.886 38.6239 132.174 38.8211C131.502 39.0184 130.553 39.2157 129.327 39.4129C129.248 39.4129 129.168 39.4327 129.089 39.4721C129.01 39.4721 128.951 39.4721 128.911 39.4721C126.42 39.7089 124.541 40.2218 123.276 41.0108C122.01 41.7605 121.377 42.9046 121.377 44.4433C121.377 45.7848 121.793 46.7908 122.623 47.4616C123.454 48.0928 124.541 48.4085 125.886 48.4085ZM151.72 54.0898V12.0713H159.966V54.0898H151.72ZM183.857 54.6816C179.981 54.6816 177.114 53.8531 175.255 52.196C173.397 50.4995 172.467 48.0336 172.467 44.7984V31.897H165.764V24.4993H169.679C170.905 24.4993 171.834 24.1837 172.467 23.5524C173.1 22.8817 173.416 21.9546 173.416 20.7709V17.3976H180.713V24.4993H191.391V31.897H180.713V42.7271C180.713 44.2658 181.108 45.3705 181.899 46.0412C182.69 46.7119 183.976 47.0473 185.755 47.0473C187.337 47.0473 189.216 46.8698 191.391 46.5147V53.9123C190.204 54.1096 188.919 54.2871 187.535 54.4449C186.151 54.6027 184.925 54.6816 183.857 54.6816ZM198.587 54.0898V24.4993H206.833V34.6193C207.347 31.6208 208.474 29.0957 210.214 27.0441C211.994 24.9531 214.288 23.9075 217.095 23.9075C219.112 23.9075 220.773 24.3415 222.079 25.2095C223.423 26.0775 224.392 27.34 224.985 28.9971C225.618 30.6542 225.934 32.7058 225.934 35.1519V37.9926H217.689V36.809C217.689 35.1519 217.254 33.8894 216.384 33.0214C215.553 32.114 214.406 31.6602 212.943 31.6602C211.756 31.6602 210.708 31.9759 209.799 32.6071C208.889 33.1989 208.158 34.0472 207.604 35.1519C207.09 36.2566 206.833 37.46 206.833 38.762V54.0898H198.587ZM230.565 54.0898V24.4993H238.811V54.0898H230.565ZM234.421 21.126L229.497 10H239.997L235.014 21.126H234.421ZM244.371 54.0898L255.998 38.9987L244.846 24.4993H254.456L261.634 33.6132L268.753 24.4993H278.125L266.973 38.9395L278.6 54.0898H268.99L261.397 44.0291L253.685 54.0898H244.371Z" fill="url(#paint0_linear_438_80)"/>
<path d="M33.1814 2.48438C16.2514 2.48438 2.55249 16.0433 2.55249 32.8002C2.55249 49.557 16.2514 63.116 33.1814 63.116C50.1113 63.116 63.8103 49.557 63.8103 32.8002C63.8103 16.0433 50.1113 2.48438 33.1814 2.48438ZM33.1814 4.32171C49.0581 4.32171 61.954 17.0858 61.954 32.8002C61.954 48.5145 49.0581 61.2786 33.1814 61.2786C17.3047 61.2786 4.40881 48.5145 4.40881 32.8002C4.40881 17.0858 17.3047 4.32171 33.1814 4.32171ZM33.1814 6.68396C32.1498 6.68396 31.1324 6.74433 30.1317 6.85799V21.5167C31.1265 21.253 32.1517 21.1196 33.1814 21.1201C34.2356 21.1201 35.2577 21.2585 36.231 21.5167V6.85799C35.2187 6.74261 34.2004 6.6845 33.1814 6.68396ZM27.7451 7.23871C25.634 7.67513 23.5854 8.36788 21.6458 9.30122V27.4194H22.7113C23.8358 25.2889 25.5926 23.5501 27.7451 22.437V7.23871ZM38.6176 7.23871V22.437C40.7702 23.5501 42.527 25.2889 43.6515 27.4194H44.717V9.30122C42.7775 8.36788 40.7288 7.67513 38.6176 7.23871ZM19.2592 10.606C16.9721 12.0135 14.9153 13.7581 13.1599 15.7796V30.2345C13.5604 30.0239 13.9077 29.8463 14.179 29.6859C14.5626 29.4594 14.7757 29.2774 14.8717 29.1479C14.9679 29.0184 15.0162 28.9287 15.0162 28.6006V27.4194H19.2592V10.606ZM47.1036 10.606V27.4194H51.3466V28.6006C51.3466 28.9287 51.3983 29.0322 51.4955 29.1698C51.5928 29.3074 51.7943 29.4887 52.1411 29.7176C52.4219 29.9029 52.7889 30.1144 53.2029 30.3762V15.7795C51.4476 13.758 49.3907 12.0135 47.1036 10.606ZM10.7732 18.996C8.25266 23.0002 6.79545 27.7294 6.79545 32.8002C6.79545 37.8711 8.25266 42.6005 10.7732 46.6042V33.9368C10.6869 33.8761 10.5998 33.8136 10.512 33.7496L9.21658 32.8002L10.5124 31.8507C10.6002 31.7867 10.6873 31.7242 10.7736 31.6636L10.7732 18.996ZM55.5895 18.996V32.311L56.0841 32.8002L55.5895 33.2893V46.6042C58.1102 42.6005 59.5674 37.8711 59.5674 32.8002C59.5674 27.7293 58.1102 22.9998 55.5895 18.996ZM33.1814 23.4823C27.9678 23.4823 23.7673 27.6398 23.7673 32.8002C23.7673 37.9604 27.9678 42.1181 33.1814 42.1181C38.395 42.1181 42.5956 37.9604 42.5956 32.8002C42.5956 27.6398 38.395 23.4823 33.1814 23.4823ZM33.1814 27.4194C36.1696 27.4194 38.6176 29.8424 38.6176 32.8002C38.6176 35.7578 36.1696 38.1808 33.1814 38.1808C30.1931 38.1808 27.7451 35.7578 27.7451 32.8002C27.7451 29.8424 30.1931 27.4194 33.1814 27.4194ZM17.1912 29.7816C17.091 30.0592 16.9627 30.3209 16.7948 30.5469C16.4037 31.0734 15.907 31.4163 15.4021 31.7148C14.7956 32.0731 14.1347 32.3976 13.4232 32.8002C14.1346 33.2026 14.7956 33.5272 15.4021 33.8855C15.907 34.1838 16.4037 34.5268 16.7948 35.0535C16.9627 35.2794 17.091 35.5411 17.1912 35.8186H21.7816C21.5149 34.8343 21.38 33.8193 21.3807 32.8002C21.3807 31.7568 21.5206 30.745 21.7814 29.7816H17.1912ZM33.1814 29.7816C31.4829 29.7816 30.1317 31.119 30.1317 32.8002C30.1317 34.4813 31.4829 35.8186 33.1814 35.8186C34.88 35.8186 36.231 34.4813 36.231 32.8002C36.231 31.119 34.88 29.7816 33.1814 29.7816ZM44.5814 29.7816C44.8479 30.7662 44.9826 31.781 44.9821 32.8002C44.9821 33.8435 44.8423 34.8552 44.5814 35.8186H49.168C49.2639 35.5494 49.385 35.2952 49.5402 35.0755C49.907 34.5569 50.3687 34.2132 50.8172 33.9172C51.3852 33.5425 51.962 33.2137 52.5417 32.8002C51.962 32.3866 51.3852 32.0578 50.8172 31.683C50.3687 31.3871 49.907 31.0434 49.5404 30.5248C49.385 30.3051 49.2639 30.0509 49.168 29.7816H44.5814ZM53.2029 35.2242C52.7889 35.4859 52.4219 35.6973 52.1411 35.8826C51.7943 36.1116 51.5928 36.2929 51.4954 36.4305C51.3983 36.5682 51.3466 36.6717 51.3466 36.9997V38.1808H47.1036V54.9943C49.3907 53.5868 51.4476 51.8423 53.2029 49.8207V35.2242ZM13.1599 35.3657V49.8207C14.9153 51.8423 16.9721 53.5868 19.2592 54.9943V38.1808H15.0162V36.9997C15.0162 36.6717 14.9679 36.582 14.8717 36.4525C14.7756 36.3229 14.5628 36.141 14.179 35.9144C13.9077 35.7539 13.5602 35.5764 13.1599 35.3657ZM21.6458 38.1808V56.299C23.5854 57.2323 25.634 57.9251 27.7451 58.3615V43.1632C25.5926 42.0502 23.8358 40.3113 22.7113 38.1808H21.6458ZM43.6515 38.1808C42.527 40.3113 40.7702 42.0502 38.6176 43.1632V58.3615C40.7288 57.9251 42.7775 57.2323 44.717 56.299V38.1808H43.6515ZM30.1317 44.0836V58.7423C31.1324 58.8559 32.1498 58.9164 33.1814 58.9164C34.2129 58.9164 35.2304 58.8559 36.231 58.7423V44.0836C35.2364 44.3474 34.2111 44.4807 33.1814 44.4802C32.1273 44.4802 31.105 44.3418 30.1317 44.0836Z" fill="url(#paint1_linear_438_80)"/>
<defs>
<linearGradient id="paint0_linear_438_80" x1="115.828" y1="6.10973" x2="217.311" y2="30.6154" gradientUnits="userSpaceOnUse">
<stop stop-color="#FFE1C6"/>
<stop offset="1" stop-color="#FFCB9E"/>
</linearGradient>
<linearGradient id="paint1_linear_438_80" x1="14.365" y1="12.0917" x2="46.4632" y2="14.8118" gradientUnits="userSpaceOnUse">
<stop stop-color="#FFE1C6"/>
<stop offset="0.495192" stop-color="#FFCB9E"/>
<stop offset="1" stop-color="#FFE1C6"/>
</linearGradient>
</defs>
</svg>
