<?xml version="1.0" encoding="UTF-8" standalone="no"?>
<svg viewBox="0 0 63 63" fill="none" version="1.1" id="svg3" width="63" height="63"
  xmlns="http://www.w3.org/2000/svg" xmlns:svg="http://www.w3.org/2000/svg">
  <rect width="100%" height="100%" fill="#041342" />
  <defs id="defs3" />
  <g id="g3" transform="matrix(0.75276367,0,0,0.75276367,7.8628481,14.328971)">
    <path
      d="m 40.0734,43.9836 c 11.693,0 21.1729,-9.4798 21.1729,-21.1733 0,-11.6935 -9.4799,-21.1726 -21.1729,-21.1726 -11.694,0 -21.173,9.4791 -21.173,21.1726 0,11.6935 9.479,21.1733 21.173,21.1733 z"
      stroke="#ffffff" stroke-width="2.99054" stroke-miterlimit="10" id="path1" />
    <path
      d="m 30.1144,42.8178 c 11.049,0 20.007,-8.9574 20.007,-20.0068 0,-11.0494 -8.958,-20.0068 -20.007,-20.0068 -11.049,0 -20.007,8.9574 -20.007,20.0068 0,11.0494 8.958,20.0068 20.007,20.0068 z"
      stroke="#ffffff" stroke-width="2.99054" stroke-miterlimit="10" id="path2" />
    <path
      d="m 20.3657,41.6212 c 10.389,0 18.81,-8.4219 18.81,-18.8106 C 39.1757,12.4219 30.7547,4 20.3657,4 9.97667,4 1.55469,12.4218 1.55469,22.8106 c 0,10.3888 8.42199,18.8106 18.81101,18.8106 z"
      stroke="#ffffff" stroke-width="2.99054" stroke-miterlimit="10" id="path3" />
  </g>
</svg>