<?xml version="1.0" encoding="UTF-8"?>
<!-- Generator: Adobe Illustrator 27.0.0, SVG Export Plug-In . SVG Version: 6.00 Build 0)  -->
<svg version="1.1" id="Layer_1" xmlns="http://www.w3.org/2000/svg" xmlns:xlink="http://www.w3.org/1999/xlink" x="0px"
   y="0px" viewBox="0 0 300 300" style="enable-background:new 0 0 300 300;" xml:space="preserve">
   <style type="text/css">
      .st0 {
         fill: none;
      }

      .st1 {
         fill: #FFFFFF;
      }

      .st2 {
         fill: #FFA80A;
      }

      .st3 {
         fill: #95001A;
      }

      .st4 {
         fill: #520033;
      }

      .st5 {
         fill: #FFE50A;
      }

      .st6 {
         fill: #6D0044;
      }

      .st7 {
         fill: #FF3417;
      }

      .st8 {
         fill: #40004D;
      }

      .st9 {
         fill: #6D0074;
      }

      .st10 {
         fill: #D7001F;
      }

      .st11 {
         fill: #EF8109;
      }
   </style>
   <rect class="st0" width="300" height="300" />
   <g>
      <g>
         <polygon class="st2"
            points="262.5,205.3 258,205.3 223.7,188.3 221.7,185.1 219.7,181.9 219.7,131.3 221.7,130.1 268.9,202.1       " />
         <polygon class="st3"
            points="166.1,212.6 161.6,212.6 110.5,187.3 110.5,185.1 112.5,181.9 164.2,156.3 166.1,157.6 168.1,156.3     219.7,181.9 221.7,185.1 221.7,187.5 170.6,212.6   " />
         <polygon class="st4"
            points="221.7,185.1 223.7,188.3 223.7,222.7 221.7,225.6 206.9,232.9 202.4,232.9 166.1,214.9 166.1,212.6       " />
         <polygon class="st5" points="221.7,130.1 180.2,66.8 166.1,66.8 166.1,102.5 168.1,105.7 219.7,131.3   " />
         <polygon class="st2" points="110.5,130.1 152,66.8 166.1,66.8 166.1,102.5 164.5,105.5 112.5,131.3   " />
         <polygon class="st6" points="262.5,205.3 221.7,225.6 221.7,185.1   " />
         <polygon class="st7"
            points="69.7,205.3 74.2,205.3 108.5,188.3 110.5,185.1 112.5,181.9 112.5,131.3 110.5,130.1 63.3,202.1       " />
         <polygon class="st8"
            points="110.5,185.1 108.5,188.3 108.5,222.7 110.5,225.6 125.3,232.9 129.8,232.9 166.1,214.9 166.1,212.6       " />
         <polygon class="st6" points="69.7,205.3 110.5,225.6 110.5,185.1   " />
         <polygon class="st9" points="166.1,253.1 206.9,232.9 166.1,212.6 125.3,232.9   " />
         <polygon class="st10" points="110.5,185.1 166.1,157.6 168.1,156.3 168.1,105.7 166.1,102.5 110.5,130.1   " />
         <polygon class="st11" points="221.7,185.1 166.1,157.6 166.1,102.5 221.7,130.1   " />
      </g>
   </g>
</svg>